<svg xmlns="http://www.w3.org/2000/svg" width="64" height="65" viewBox="0 0 64 65">
  <defs>
    <style>
      .cls-1 {
        fill: #fff;
        fill-rule: evenodd;
      }
    </style>
  </defs>
  <path class="cls-1" d="M298.74,6936.56H273.434a1.266,1.266,0,0,0-1.26,1.27,2.111,2.111,0,0,1-2.1,2.12h-4.185a2.112,2.112,0,0,1-2.1-2.12,1.266,1.266,0,0,0-1.259-1.27H242.872v-32.62a2.632,2.632,0,0,1,2.624-2.64H261.2l0.012,0.11-2.617,2.49c-0.009.01-.017,0.01-0.026,0.02a12.182,12.182,0,0,0-3.547,8.63v5.67a1.257,1.257,0,0,0,.748,1.16,1.155,1.155,0,0,0,.511.11,1.269,1.269,0,0,0,.844-0.32l5.511-5.02a1.228,1.228,0,0,0,.73.58,15.98,15.98,0,0,0,4.555.67h0.056a16.007,16.007,0,0,0,4.611-.67,1.251,1.251,0,0,0,.742-0.6l5.54,5.04a1.269,1.269,0,0,0,.844.32,1.159,1.159,0,0,0,.512-0.11,1.258,1.258,0,0,0,.747-1.16v-5.66a12.188,12.188,0,0,0-3.546-8.64l-2.42-2.44,0.023-.18H290.5a2.632,2.632,0,0,1,2.624,2.64v23.28a1.26,1.26,0,1,0,2.519,0v-23.28a5.165,5.165,0,0,0-5.143-5.18H275.323a21.183,21.183,0,0,0-5.367-15.8l-0.221-.25a2.152,2.152,0,0,0-1.592-.71h-0.016a2.108,2.108,0,0,0-1.6.74l-0.417.47a21.3,21.3,0,0,0-5.162,15.55H245.5a5.165,5.165,0,0,0-5.143,5.18v32.62h-3.094a1.266,1.266,0,0,0-1.259,1.27v1.98a7.164,7.164,0,0,0,7.13,7.19h49.74a7.165,7.165,0,0,0,7.13-7.19v-1.98A1.266,1.266,0,0,0,298.74,6936.56Zm-24.732-27.08,0.6-4.81,1.038,1.05a9.645,9.645,0,0,1,2.81,6.84v2.81l-4.656-4.24Zm-6-24.59,0.144-.16a18.649,18.649,0,0,1,4.575,14.74l-0.289,2.31h0l-1.212,9.69h0l-0.129,1.04a14.146,14.146,0,0,1-3.112.35h-0.047a13.559,13.559,0,0,1-3.045-.35l-0.992-9.65-0.111-1.09h0l-0.276-2.69A18.733,18.733,0,0,1,268,6884.89Zm-5.791,26.23-4.669,4.25v-2.82a9.654,9.654,0,0,1,2.8-6.82l1.2-1.14Zm30.658,33.34H243.13a4.633,4.633,0,0,1-4.612-4.65v-0.71h22.93a4.637,4.637,0,0,0,4.443,3.39h4.185a4.637,4.637,0,0,0,4.442-3.39h22.963v0.71h0A4.632,4.632,0,0,1,292.87,6944.46Zm-3.605-40.33h-6.34a1.27,1.27,0,0,0,0,2.54h5.08v24.6H248.417v-24.6h3.994a1.27,1.27,0,0,0,0-2.54h-5.253a1.266,1.266,0,0,0-1.26,1.27v27.14a1.257,1.257,0,0,0,1.26,1.26h42.107a1.257,1.257,0,0,0,1.259-1.26V6905.4A1.266,1.266,0,0,0,289.265,6904.13Zm-21.265-10a1.27,1.27,0,1,1-1.26,1.27A1.266,1.266,0,0,1,268,6894.13Zm26.388,37.35a1.27,1.27,0,1,1-1.26,1.27A1.266,1.266,0,0,1,294.388,6931.48Zm-29.663-14.23a1.266,1.266,0,0,0-1.259,1.27v5.17a1.259,1.259,0,1,0,2.518,0v-5.17A1.265,1.265,0,0,0,264.725,6917.25Zm6.4-.3a1.266,1.266,0,0,0-1.259,1.27v7.62a1.26,1.26,0,1,0,2.519,0v-7.62A1.266,1.266,0,0,0,271.123,6916.95Z" transform="translate(-236 -6882)"/>
</svg>
